# xmcd
# Track frame offsets:
# 150
# 10758
# 21322
# 32170
# 44955
# 55100
# 66596
# 78105
# 89755
# 101547
# 112135
# 123419
# 134344
# 145523
#
# Disc length: 2093 seconds
# Revision: 2
# Processed by: cddbd v1.5.2PL0 Copyright (c) Steve Scherf et al.
# Submitted via: VisiTrax 2.11.3.279 - For more info visit www.synapsa.com
#
DISCID=c8082b0e
DTITLE=Patsy Cline - The Best Of Patsy Cline Disc 2
DYEAR=1999
DGENRE=Country
TTITLE0=Three Cigarettes In An Ashtray
TTITLE1=I Love You Honey
TTITLE2=Honky Tonk Merry Go Round
TTITLE3=Fingerprints
TTITLE4=Turn The Cards Slowly
TTITLE5=Just Out Of Reach
TTITLE6=Cry Not For Me
TTITLE7=Crazy Dreams
TTITLE8=Let The Tear Drops Fall
TTITLE9=Too Many Secrets
TTITLE10=Stop The World (And Let Me Off)
TTITLE11=That's How Much I Love You
TTITLE12=There He Goes
TTITLE13=Write Me In Care Of The Blues
EXTD=1999 Mastertech Pty Ltd.
EXTT0=
EXTT1=
EXTT2=
EXTT3=
EXTT4=
EXTT5=
EXTT6=
EXTT7=
EXTT8=
EXTT9=
EXTT10=
EXTT11=
EXTT12=
EXTT13=
PLAYORDER=
